<?xml version="1.0"?>

<!-- License: CC0 License. Made by SVG Repo:
https://www.svgrepo.com/svg/392215/vibrator-alarm-alert-notification-warning -->
<svg width="800px" height="800px" viewBox="0 0 20 20" version="1.1"
    xmlns="http://www.w3.org/2000/svg">

    <g id="layer1">

        <path
            d="M 4 0 L 4 20 L 16 20 L 16 0 L 4 0 z M 5 1 L 15 1 L 15 19 L 5 19 L 5 1 z M 2 4 L 2 16 L 3 16 L 3 4 L 2 4 z M 17 4 L 17 16 L 18 16 L 18 4 L 17 4 z M 0 7 L 0 13 L 1 13 L 1 7 L 0 7 z M 19 7 L 19 13 L 20 13 L 20 7 L 19 7 z "
            style="fill:#222222; fill-opacity:1; stroke:none; stroke-width:0px;" />

    </g>

</svg>