<?xml version="1.0" encoding="iso-8859-1"?>
<!-- Generator: Adobe Illustrator 19.0.0, SVG Export Plug-In . SVG Version: 6.00 Build 0)  -->
<!-- License: CC0. Made by SVG Repo: https://www.svgrepo.com/svg/293853/encyclopedia-learn -->
<svg version="1.1" id="Layer_1" xmlns="http://www.w3.org/2000/svg"
    xmlns:xlink="http://www.w3.org/1999/xlink" x="0px" y="0px"
    viewBox="0 0 512 512" style="enable-background:new 0 0 512 512;" xml:space="preserve">
<polygon style="fill:#554F4E;" points="407.912,0 374.154,256 407.912,512 509.187,512 509.187,0 "/>
<polygon style="fill:#D8D1D0;" points="441.67,33.758 407.912,256 441.67,478.242 475.429,478.242 475.429,33.758 "/>
<rect x="374.154" y="33.758" style="fill:#FFFFFF;" width="67.516" height="444.484"/>
<polygon style="fill:#7F7774;" points="407.912,0 407.912,512 374.154,512 295.385,256 374.154,0 "/>
<polygon style="fill:#A99E9B;" points="374.154,0 374.154,512 70.33,512 36.571,256 70.33,0 "/>
<polygon style="fill:#F5AC51;" points="340.396,67.516 340.396,376.967 306.637,376.967 250.374,222.242 306.637,67.516 "/>
<rect x="137.846" y="67.516" style="fill:#FFD159;" width="168.791" height="309.451"/>
<path style="fill:#554F4E;" d="M36.571,0C17.928,0,2.813,15.115,2.813,33.758v444.484C2.813,496.885,17.928,512,36.571,512H70.33V0
	H36.571z"/>
<path style="fill:#FFD159;" d="M171.612,452.924c-2.728,0-5.404-1.32-7.03-3.76c-2.586-3.878-1.537-9.118,2.341-11.703
	l33.759-22.505c2.836-1.89,6.528-1.89,9.362,0l29.078,19.385l29.076-19.385c2.836-1.89,6.528-1.89,9.362,0l33.757,22.505
	c3.878,2.586,4.926,7.825,2.341,11.703c-2.586,3.879-7.825,4.926-11.703,2.341L272.88,432.12l-29.076,19.385
	c-2.836,1.89-6.528,1.89-9.362,0l-29.078-19.385l-29.078,19.385C174.847,452.465,173.221,452.924,171.612,452.924z"/>
</svg>